<svg aria-hidden="true" style="position: absolute; width: 10px; height: 10px; overflow: hidden;" version="1.1" xmlns="http://www.w3.org/2000/svg" xmlns:xlink="http://www.w3.org/1999/xlink">
<defs>
<symbol id="search" viewBox="0 0 32 32">
<path d="M12.163 24.523c0 0 0.041 0.448 0.040 1.357h-0.040v1.495l7.916-0.876c-0.007-0.248-0.013-0.44-0.015-0.541-0.022-0.817-0.024-1.203-0.017-1.376 0.008-0.021 0.014-0.038 0.023-0.060h0.009c0 0-0.001-0.009-0.003-0.018 1.236-3.178 5.461-12.22 5.461-14.969-0.001-5.258-4.279-9.536-9.537-9.536s-9.537 4.279-9.537 9.536c0 3.133 4.374 11.777 5.719 14.987h-0.019zM16 1.353c4.513 0 8.184 3.671 8.184 8.183 0 2.323-3.842 10.584-5.528 14.888l-5.023 0.057c-1.776-4.191-5.817-12.259-5.817-14.944 0-4.513 3.671-8.183 8.183-8.183z"></path>
<path d="M12.163 28.848c-0.032 0.022-0.059 0.388 0.077 0.861l7.809-0.865c0.003-0.056 0.006-0.105 0.013-0.141 0.029-0.184 0.038-0.591 0.037-1.040l-7.935 0.88v0.306z"></path>
<path d="M16.197 32c2.587 0.013 3.419-1.038 3.697-1.972l-7.043 0.781c0.573 0.634 1.578 1.182 3.346 1.191z"></path>
</symbol>
<symbol id="icon-search" viewBox="0 0 32 32">
<path d="M31.008 27.231l-7.58-6.447c-0.784-0.705-1.622-1.029-2.299-0.998 1.789-2.096 2.87-4.815 2.87-7.787 0-6.627-5.373-12-12-12s-12 5.373-12 12 5.373 12 12 12c2.972 0 5.691-1.081 7.787-2.87-0.031 0.677 0.293 1.515 0.998 2.299l6.447 7.58c1.104 1.226 2.907 1.33 4.007 0.23s0.997-2.903-0.23-4.007zM12 20c-4.418 0-8-3.582-8-8s3.582-8 8-8 8 3.582 8 8-3.582 8-8 8z"></path>
</symbol>
</defs>
</svg>
